<mxfile host="app.diagrams.net" modified="2023-04-28T12:26:50.266Z" agent="5.0 (Windows)" etag="wYaTqRPn-UrsxPx6KGf7" version="21.0.10" type="github">
  <diagram name="Página-1" id="xri2Lt_ZKdMpDE1avL1U">
    <mxGraphModel dx="1257" dy="687" grid="1" gridSize="10" guides="1" tooltips="1" connect="1" arrows="1" fold="1" page="1" pageScale="1" pageWidth="3300" pageHeight="4681" math="0" shadow="0">
      <root>
        <mxCell id="0" />
        <mxCell id="1" parent="0" />
        <mxCell id="XPk-q91k7-mT1fS0HP3R-9" style="rounded=0;orthogonalLoop=1;jettySize=auto;html=1;exitX=1;exitY=0.3333333333333333;exitDx=0;exitDy=0;exitPerimeter=0;entryX=0;entryY=0.5;entryDx=0;entryDy=0;" edge="1" parent="1" source="XPk-q91k7-mT1fS0HP3R-1" target="XPk-q91k7-mT1fS0HP3R-3">
          <mxGeometry relative="1" as="geometry" />
        </mxCell>
        <mxCell id="XPk-q91k7-mT1fS0HP3R-1" value="&lt;div&gt;Admin&lt;/div&gt;" style="shape=umlActor;verticalLabelPosition=bottom;verticalAlign=top;html=1;outlineConnect=0;" vertex="1" parent="1">
          <mxGeometry x="130" y="160" width="30" height="60" as="geometry" />
        </mxCell>
        <mxCell id="XPk-q91k7-mT1fS0HP3R-2" value="Motos" style="shape=umlActor;verticalLabelPosition=bottom;verticalAlign=top;html=1;outlineConnect=0;" vertex="1" parent="1">
          <mxGeometry x="130" y="450" width="30" height="60" as="geometry" />
        </mxCell>
        <mxCell id="XPk-q91k7-mT1fS0HP3R-3" value="Registrar matrícula" style="ellipse;whiteSpace=wrap;html=1;" vertex="1" parent="1">
          <mxGeometry x="410" y="120" width="120" height="80" as="geometry" />
        </mxCell>
        <mxCell id="XPk-q91k7-mT1fS0HP3R-4" value="Crear pedido" style="ellipse;whiteSpace=wrap;html=1;" vertex="1" parent="1">
          <mxGeometry x="410" y="230" width="120" height="80" as="geometry" />
        </mxCell>
        <mxCell id="XPk-q91k7-mT1fS0HP3R-5" value="Reportar localizacion" style="ellipse;whiteSpace=wrap;html=1;" vertex="1" parent="1">
          <mxGeometry x="410" y="440" width="120" height="80" as="geometry" />
        </mxCell>
        <mxCell id="XPk-q91k7-mT1fS0HP3R-6" value="Mostrar mapa" style="ellipse;whiteSpace=wrap;html=1;" vertex="1" parent="1">
          <mxGeometry x="580" y="180" width="120" height="80" as="geometry" />
        </mxCell>
        <mxCell id="XPk-q91k7-mT1fS0HP3R-7" value="Con ruta" style="ellipse;whiteSpace=wrap;html=1;" vertex="1" parent="1">
          <mxGeometry x="780" y="100" width="120" height="80" as="geometry" />
        </mxCell>
        <mxCell id="XPk-q91k7-mT1fS0HP3R-8" value="Sin ruta" style="ellipse;whiteSpace=wrap;html=1;" vertex="1" parent="1">
          <mxGeometry x="780" y="230" width="120" height="80" as="geometry" />
        </mxCell>
        <mxCell id="XPk-q91k7-mT1fS0HP3R-12" style="rounded=0;orthogonalLoop=1;jettySize=auto;html=1;exitX=1;exitY=0.3333333333333333;exitDx=0;exitDy=0;exitPerimeter=0;entryX=0;entryY=0.5;entryDx=0;entryDy=0;" edge="1" parent="1" source="XPk-q91k7-mT1fS0HP3R-1" target="XPk-q91k7-mT1fS0HP3R-4">
          <mxGeometry relative="1" as="geometry" />
        </mxCell>
        <mxCell id="XPk-q91k7-mT1fS0HP3R-13" style="rounded=0;orthogonalLoop=1;jettySize=auto;html=1;exitX=1;exitY=0.3333333333333333;exitDx=0;exitDy=0;exitPerimeter=0;entryX=0;entryY=0.5;entryDx=0;entryDy=0;" edge="1" parent="1" source="XPk-q91k7-mT1fS0HP3R-1" target="XPk-q91k7-mT1fS0HP3R-6">
          <mxGeometry relative="1" as="geometry" />
        </mxCell>
        <mxCell id="XPk-q91k7-mT1fS0HP3R-16" value="&amp;lt;&amp;lt;extend&amp;gt;&amp;gt;" style="html=1;verticalAlign=bottom;labelBackgroundColor=none;endArrow=open;endFill=0;dashed=1;rounded=0;exitX=1;exitY=0;exitDx=0;exitDy=0;entryX=0;entryY=0.5;entryDx=0;entryDy=0;" edge="1" parent="1" source="XPk-q91k7-mT1fS0HP3R-6" target="XPk-q91k7-mT1fS0HP3R-7">
          <mxGeometry width="160" relative="1" as="geometry">
            <mxPoint x="570" y="440" as="sourcePoint" />
            <mxPoint x="730" y="440" as="targetPoint" />
          </mxGeometry>
        </mxCell>
        <mxCell id="XPk-q91k7-mT1fS0HP3R-17" value="&amp;lt;&amp;lt;extend&amp;gt;&amp;gt;" style="html=1;verticalAlign=bottom;labelBackgroundColor=none;endArrow=open;endFill=0;dashed=1;rounded=0;exitX=1;exitY=1;exitDx=0;exitDy=0;entryX=0;entryY=0.5;entryDx=0;entryDy=0;" edge="1" parent="1" source="XPk-q91k7-mT1fS0HP3R-6" target="XPk-q91k7-mT1fS0HP3R-8">
          <mxGeometry width="160" relative="1" as="geometry">
            <mxPoint x="570" y="440" as="sourcePoint" />
            <mxPoint x="730" y="440" as="targetPoint" />
          </mxGeometry>
        </mxCell>
        <mxCell id="XPk-q91k7-mT1fS0HP3R-18" style="rounded=0;orthogonalLoop=1;jettySize=auto;html=1;exitX=1;exitY=0.3333333333333333;exitDx=0;exitDy=0;exitPerimeter=0;entryX=0;entryY=0.5;entryDx=0;entryDy=0;" edge="1" parent="1" source="XPk-q91k7-mT1fS0HP3R-2" target="XPk-q91k7-mT1fS0HP3R-5">
          <mxGeometry relative="1" as="geometry" />
        </mxCell>
      </root>
    </mxGraphModel>
  </diagram>
</mxfile>
